<svg width="162" height="162" viewBox="0 0 162 162" fill="none" xmlns="http://www.w3.org/2000/svg">
<path d="M66.252 0.451713C60.05 1.4813 51.398 4.59986 43.744 8.56018C37.089 11.9902 32.793 14.953 27.227 19.9739C21.691 24.9638 18.212 29.018 13.372 36.2526C5.89901 47.3239 0.363003 63.5706 0.0910034 75.1412L0 78.4155L1.21002 78.2598C3.78202 77.9471 8.77301 78.1968 10.558 78.727C12.585 79.3512 12.857 79.1634 12.857 77.3859C12.857 75.4218 15.036 65.0056 16.155 61.4198C20.511 47.7912 28.891 35.5048 39.328 27.4272C44.531 23.4051 46.437 22.1567 51.005 19.7872C55.785 17.3237 60.958 15.5772 67.674 14.1422C73.149 12.9889 74.027 12.6144 75.842 10.6812C77.233 9.21527 77.596 8.21774 77.596 6.0028C77.596 3.78901 76.87 2.57275 74.813 1.1698C73.452 0.295965 72.937 0.140206 71.092 0.0783616C69.943 0.0462943 67.764 0.203191 66.252 0.451713Z" fill="#F65C3C"/>
<path d="M87.3405 0.635246C84.1335 2.28786 82.7725 5.93667 84.2245 9.18005C84.8595 10.646 87.2195 12.9846 88.2475 13.2022C88.6415 13.2652 91.0305 13.7016 93.5725 14.1379C101.075 15.479 105.4 16.9449 111.874 20.3132C118.166 23.6184 123.732 27.8593 129.329 33.691C133.957 38.5251 139.555 47.1948 142.913 54.773C145.878 61.4155 148.085 69.9592 148.569 76.5089C148.69 78.1306 148.903 79.19 149.115 79.19C149.296 79.19 150.414 78.8476 151.564 78.4112C153.561 77.6931 153.925 77.6622 157.857 77.85L162.001 78.0367V76.0405C162.001 73.5461 161.033 66.9655 160.035 62.7875C158.371 55.5518 153.864 44.918 149.478 37.7761C141.491 24.7728 130.359 14.3257 118.016 8.24437C110.332 4.40889 102.768 1.78853 96.1135 0.604324C91.5155 -0.206523 89.0045 -0.206522 87.3405 0.635246Z" fill="#F65C3C"/>
<path d="M8.40274 87.9539L6.01272 89.2641L3.86575 88.2665C2.68575 87.7363 1.38473 87.2679 0.991727 87.2369C0.325727 87.143 0.295739 87.2679 0.204739 89.0144C-0.0372606 93.2874 1.05174 98.9003 3.65374 106.915C9.06874 123.599 21.1697 139.161 36.6887 149.327C42.6177 153.194 47.4577 155.72 52.8427 157.778C56.7757 159.306 65.9727 161.552 68.9667 161.739C71.5987 161.894 71.7807 161.863 73.6257 160.928C74.6847 160.367 75.8648 159.556 76.2578 159.119C77.2258 158.028 77.7407 155.408 77.2867 153.661C76.4997 150.667 74.8057 149.451 69.8747 148.423C65.0037 147.393 57.3807 145.116 54.2647 143.776C51.1487 142.435 45.4317 139.129 41.2867 136.26C36.3557 132.83 30.6377 127.279 26.4937 121.946C23.4987 118.048 22.5307 116.52 20.0197 111.593C16.9337 105.605 15.6637 101.395 13.3947 89.8562L12.7597 86.6758H11.7917C11.2167 86.6758 9.76474 87.237 8.40274 87.9539Z" fill="#F65C3C"/>
<path d="M149.205 87.0519C148.842 87.3325 148.6 88.2682 148.358 90.2335C147.904 94.006 145.635 102.614 144.122 106.263C141.642 112.281 138.223 118.299 134.412 123.32C132.203 126.252 127.06 131.335 123.582 134.048C118.469 138.071 113.175 141.159 107.367 143.559C104.553 144.714 95.2058 147.333 90.0018 148.455C86.5228 149.204 85.1918 150.046 84.2538 152.042C82.7418 155.223 83.2558 158.404 85.5548 160.431C87.4308 162.084 88.5808 162.301 92.5428 161.678C108.365 159.246 122.069 153.071 134.775 142.687C141.158 137.479 149.87 126.096 154.287 117.208C157.675 110.41 160.065 103.331 161.094 97.0318C161.699 93.5078 161.911 87.8009 161.457 87.0828C161.306 86.8023 160.519 86.958 158.553 87.6761L155.89 88.6118L153.47 87.644C150.869 86.5847 149.991 86.4598 149.205 87.0519Z" fill="#F65C3C"/>
<path d="M66.252 0.451713C60.05 1.4813 51.398 4.59986 43.744 8.56018C37.089 11.9902 32.793 14.953 27.227 19.9739C21.691 24.9638 18.212 29.018 13.372 36.2526C5.89901 47.3239 0.363003 63.5706 0.0910034 75.1412L0 78.4155L1.21002 78.2598C3.78202 77.9471 8.77301 78.1968 10.558 78.727C12.585 79.3512 12.857 79.1634 12.857 77.3859C12.857 75.4218 15.036 65.0056 16.155 61.4198C20.511 47.7912 28.891 35.5048 39.328 27.4272C44.531 23.4051 46.437 22.1567 51.005 19.7872C55.785 17.3237 60.958 15.5772 67.674 14.1422C73.149 12.9889 74.027 12.6144 75.842 10.6812C77.233 9.21527 77.596 8.21774 77.596 6.0028C77.596 3.78901 76.87 2.57275 74.813 1.1698C73.452 0.295965 72.937 0.140206 71.092 0.0783616C69.943 0.0462943 67.764 0.203191 66.252 0.451713Z" fill="#F65C3C"/>
<path d="M87.3405 0.635246C84.1335 2.28786 82.7725 5.93667 84.2245 9.18005C84.8595 10.646 87.2195 12.9846 88.2475 13.2022C88.6415 13.2652 91.0305 13.7016 93.5725 14.1379C101.075 15.479 105.4 16.9449 111.874 20.3132C118.166 23.6184 123.732 27.8593 129.329 33.691C133.957 38.5251 139.555 47.1948 142.913 54.773C145.878 61.4155 148.085 69.9592 148.569 76.5089C148.69 78.1306 148.903 79.19 149.115 79.19C149.296 79.19 150.414 78.8476 151.564 78.4112C153.561 77.6931 153.925 77.6622 157.857 77.85L162.001 78.0367V76.0405C162.001 73.5461 161.033 66.9655 160.035 62.7875C158.371 55.5518 153.864 44.918 149.478 37.7761C141.491 24.7728 130.359 14.3257 118.016 8.24437C110.332 4.40889 102.768 1.78853 96.1135 0.604324C91.5155 -0.206523 89.0045 -0.206522 87.3405 0.635246Z" fill="#F65C3C"/>
<path d="M8.40274 87.9539L6.01272 89.2641L3.86575 88.2665C2.68575 87.7363 1.38473 87.2679 0.991727 87.2369C0.325727 87.143 0.295739 87.2679 0.204739 89.0144C-0.0372606 93.2874 1.05174 98.9003 3.65374 106.915C9.06874 123.599 21.1697 139.161 36.6887 149.327C42.6177 153.194 47.4577 155.72 52.8427 157.778C56.7757 159.306 65.9727 161.552 68.9667 161.739C71.5987 161.894 71.7807 161.863 73.6257 160.928C74.6847 160.367 75.8648 159.556 76.2578 159.119C77.2258 158.028 77.7407 155.408 77.2867 153.661C76.4997 150.667 74.8057 149.451 69.8747 148.423C65.0037 147.393 57.3807 145.116 54.2647 143.776C51.1487 142.435 45.4317 139.129 41.2867 136.26C36.3557 132.83 30.6377 127.279 26.4937 121.946C23.4987 118.048 22.5307 116.52 20.0197 111.593C16.9337 105.605 15.6637 101.395 13.3947 89.8562L12.7597 86.6758H11.7917C11.2167 86.6758 9.76474 87.237 8.40274 87.9539Z" fill="#F65C3C"/>
<path d="M149.205 87.0519C148.842 87.3325 148.6 88.2682 148.358 90.2335C147.904 94.006 145.635 102.614 144.122 106.263C141.642 112.281 138.223 118.299 134.412 123.32C132.203 126.252 127.06 131.335 123.582 134.048C118.469 138.071 113.175 141.159 107.367 143.559C104.553 144.714 95.2058 147.333 90.0018 148.455C86.5228 149.204 85.1918 150.046 84.2538 152.042C82.7418 155.223 83.2558 158.404 85.5548 160.431C87.4308 162.084 88.5808 162.301 92.5428 161.678C108.365 159.246 122.069 153.071 134.775 142.687C141.158 137.479 149.87 126.096 154.287 117.208C157.675 110.41 160.065 103.331 161.094 97.0318C161.699 93.5078 161.911 87.8009 161.457 87.0828C161.306 86.8023 160.519 86.958 158.553 87.6761L155.89 88.6118L153.47 87.644C150.869 86.5847 149.991 86.4598 149.205 87.0519Z" fill="#F65C3C"/>
<path d="M68.958 44.4119L70.9082 45.2843C71.6772 45.6281 72.5981 45.1529 72.5981 44.4119V41.5899C72.5981 41.1729 72.9947 40.8339 73.4832 40.8339C73.9717 40.8339 74.3683 40.4958 74.3683 40.0789V39.6497C74.3683 39.3642 74.4892 39.0881 74.7088 38.8721L75.4285 38.1649C75.8773 37.7245 76.5274 37.4709 77.2123 37.4709H79.7747H80.3812C80.8456 37.4709 81.1019 37.0099 80.8069 36.7028C80.4731 36.3553 80.8465 35.8444 81.3592 35.9468L88.7409 37.4334C88.8667 37.4578 88.9963 37.4709 89.1259 37.4709H90.2499C90.5556 37.4709 90.8033 37.6823 90.8033 37.9433C90.8033 38.38 91.4388 38.5829 91.7745 38.2532L92.3133 37.7236C92.4768 37.563 92.7157 37.4709 92.9643 37.4709C93.6066 37.4709 94.0429 38.0363 93.7798 38.5359L92.9082 40.1925C92.7021 40.5832 92.2475 40.8339 91.7455 40.8339C91.1854 40.8339 90.6911 41.1457 90.5266 41.603L89.5448 44.3321C89.2391 45.181 89.983 46.0403 91.0238 46.0403H91.4911C92.0869 46.0403 92.5706 46.4526 92.5706 46.9616C92.5706 47.4706 93.0533 47.8829 93.6492 47.8829H93.8649C94.1715 47.8829 94.4685 47.9758 94.7026 48.1458L100.855 52.6085C101.282 52.9184 101.825 53.0893 102.386 53.0893H103.245C104.36 53.0893 105.324 52.4235 105.557 51.4928L106.872 46.2488C106.906 46.1098 106.924 45.969 106.924 45.8272V37.8907C106.924 37.6137 106.991 37.3395 107.12 37.0859L108.372 34.632C108.567 34.2489 109.01 34 109.501 34C110.113 34 110.632 34.3841 110.72 34.9006L112.04 42.684C112.208 43.6757 113.205 44.4119 114.38 44.4119H114.944C115.603 44.4119 116.231 44.6467 116.678 45.059L117.114 45.46C117.519 45.8328 117.743 46.323 117.743 46.8311V48.8276C117.743 49.3357 117.969 49.8259 118.373 50.1987L119.13 50.8955C119.38 51.1265 119.564 51.4036 119.667 51.705L121.132 56.0156C121.23 56.3029 121.401 56.5677 121.634 56.7922L126.571 61.5432C126.651 61.6202 126.721 61.7019 126.782 61.7892L129.757 66.0434C129.917 66.2734 130.33 66.1758 130.33 65.9081C130.33 65.6686 130.675 65.5532 130.865 65.7288L131.984 66.759C132.058 66.8285 132.119 66.9083 132.163 66.9956L133.692 70.0881C133.808 70.322 133.974 70.5351 134.183 70.7164L135.532 71.8884C135.67 72.0086 135.79 72.1438 135.89 72.2903L139.065 76.9643C139.206 77.1699 139.301 77.3962 139.349 77.631L140.965 85.5637C141.017 85.8201 141.011 86.083 140.946 86.3375L139.317 92.7357C139.291 92.8409 139.254 92.9442 139.208 93.0447L132.167 108.358C132.121 108.46 132.083 108.565 132.057 108.672L130.73 113.964C130.497 114.895 129.533 115.56 128.419 115.56H126.263C125.43 115.56 124.659 115.934 124.232 116.544L122.504 119.016C121.83 119.979 120.365 120.289 119.243 119.704L118.367 119.249C117.979 119.047 117.743 118.687 117.743 118.299V117.942C117.743 117.525 117.348 117.188 116.86 117.188H116.513C116.217 117.188 115.977 116.983 115.977 116.73C115.977 116.313 115.377 116.113 115.047 116.419L113.441 117.901C112.85 118.447 111.835 118.433 111.263 117.873L111.08 117.692C110.754 117.371 110.281 117.188 109.785 117.188H107.521C107.129 117.188 106.743 117.105 106.399 116.946L103.77 115.735C103.519 115.619 103.294 115.466 103.107 115.282L102.095 114.286C101.723 113.919 101.517 113.45 101.517 112.964V112.403C101.517 112.125 101.451 111.851 101.321 111.597L100.071 109.148C99.8739 108.761 99.428 108.512 98.9347 108.512H98.2459C97.4285 108.512 97.0029 107.682 97.5562 107.169L97.593 107.134C97.8271 106.917 97.8861 106.602 97.741 106.333L97.502 105.891C97.1741 105.283 96.1072 105.482 96.1072 106.152C96.1072 106.496 95.7792 106.776 95.3758 106.776H95.3488C94.8438 106.776 94.4811 106.363 94.6213 105.949L96.0694 101.683C96.0946 101.608 96.1072 101.53 96.1072 101.453C96.1072 100.593 94.7558 100.311 94.2895 101.073L92.5773 103.874C91.8557 105.054 89.8611 105.008 89.2149 103.797L87.4466 100.48C87.2725 100.153 86.8894 99.9424 86.4687 99.9424C85.8747 99.9424 85.393 99.5311 85.393 99.0249V98.7901C85.393 98.3647 85.1192 97.975 84.6791 97.774L78.6787 95.0412C78.2425 94.843 77.7443 94.766 77.2548 94.8215L64.1175 96.3118C63.8118 96.3465 63.5168 96.432 63.2498 96.5635L56.6826 99.7893C56.4765 99.8907 56.2889 100.018 56.1273 100.167L55.3061 100.924C54.8592 101.336 54.2304 101.57 53.5726 101.57H46.721C46.0448 101.57 45.4006 101.817 44.9527 102.249L40.9528 106.097C40.5049 106.529 39.8607 106.776 39.1845 106.776H37.4104C36.89 106.776 36.3841 106.63 35.972 106.359L32.2033 103.894C31.6364 103.523 31.3046 102.948 31.3046 102.338C31.3046 101.845 31.5223 101.369 31.916 101.006L32.4412 100.523C32.8465 100.15 33.071 99.6597 33.071 99.1517V94.9501C33.071 94.8074 33.0535 94.6665 33.0187 94.5275L31.3433 87.8448C31.3172 87.7406 31.2775 87.6391 31.2253 87.5424L26.5453 78.8688C26.4157 78.6293 26.7911 78.4293 26.9865 78.6331C27.1432 78.7955 27.4527 78.7016 27.4527 78.4913V77.7569C27.4527 77.2413 28.2691 77.0807 28.5342 77.5446L29.4309 79.1186L26.0452 71.2761C25.8711 70.8713 26.2213 70.4421 26.7262 70.4421C27.1277 70.4421 27.4527 70.1642 27.4527 69.8223V66.8641C27.4527 66.2547 28.3097 65.941 28.8234 66.3636C29.1552 66.6369 29.6863 66.619 29.991 66.3251L34.402 62.0775C34.6874 61.8033 35.055 61.6004 35.4651 61.4906L47.0363 58.3981C47.2936 58.3295 47.5345 58.2243 47.7502 58.0863L51.6447 55.5873C52.288 55.175 52.3857 54.3834 51.8585 53.865C51.4048 53.4198 51.4048 52.7578 51.8585 52.3126L54.6047 49.6183M68.958 44.4119V46.0403ZM68.958 44.4119L67.8949 43.3695C67.4461 42.93 66.796 42.6774 66.1121 42.6774H66.0367C65.6333 42.6774 65.2357 42.7647 64.8836 42.9328L62.179 44.2222C61.9178 44.3471 61.6247 44.4119 61.3258 44.4119C60.5471 44.4119 59.8622 44.8514 59.6455 45.49L58.7391 48.1618C58.446 49.0248 57.5203 49.6183 56.4678 49.6183H56.3711H54.6047M54.6047 49.6183L55.9213 50.8317C56.1795 51.0693 56.1921 51.4327 55.9522 51.6834C55.5005 52.1549 54.6047 51.8816 54.6047 51.2721V49.6183Z" fill="#F65C3C"/>
<path d="M68.958 44.4119L70.9082 45.2843C71.6772 45.6281 72.5981 45.1529 72.5981 44.4119V41.5899C72.5981 41.1729 72.9947 40.8339 73.4832 40.8339C73.9717 40.8339 74.3683 40.4958 74.3683 40.0789V39.6497C74.3683 39.3642 74.4892 39.0881 74.7088 38.8721L75.4285 38.1649C75.8773 37.7245 76.5274 37.4709 77.2123 37.4709H79.7747H80.3812C80.8456 37.4709 81.1019 37.0099 80.8069 36.7028C80.4731 36.3553 80.8465 35.8444 81.3592 35.9468L88.7409 37.4334C88.8667 37.4578 88.9963 37.4709 89.1259 37.4709H90.2499C90.5556 37.4709 90.8033 37.6823 90.8033 37.9433C90.8033 38.38 91.4388 38.5829 91.7745 38.2532L92.3133 37.7236C92.4768 37.563 92.7157 37.4709 92.9643 37.4709C93.6066 37.4709 94.0429 38.0363 93.7798 38.5359L92.9082 40.1925C92.7021 40.5832 92.2475 40.8339 91.7455 40.8339C91.1854 40.8339 90.6911 41.1457 90.5266 41.603L89.5448 44.3321C89.2391 45.181 89.983 46.0403 91.0238 46.0403H91.4911C92.0869 46.0403 92.5706 46.4526 92.5706 46.9616C92.5706 47.4706 93.0533 47.8829 93.6492 47.8829H93.8649C94.1715 47.8829 94.4685 47.9758 94.7026 48.1458L100.855 52.6085C101.282 52.9184 101.825 53.0893 102.386 53.0893H103.245C104.36 53.0893 105.324 52.4235 105.557 51.4928L106.872 46.2488C106.906 46.1098 106.924 45.969 106.924 45.8272V37.8907C106.924 37.6137 106.991 37.3395 107.12 37.0859L108.372 34.632C108.567 34.2489 109.01 34 109.501 34C110.113 34 110.632 34.3841 110.72 34.9006L112.04 42.684C112.208 43.6757 113.205 44.4119 114.38 44.4119H114.944C115.603 44.4119 116.231 44.6467 116.678 45.059L117.114 45.46C117.519 45.8328 117.743 46.323 117.743 46.8311V48.8276C117.743 49.3357 117.969 49.8259 118.373 50.1987L119.13 50.8955C119.38 51.1265 119.564 51.4036 119.667 51.705L121.132 56.0156C121.23 56.3029 121.401 56.5677 121.634 56.7922L126.571 61.5432C126.651 61.6202 126.721 61.7019 126.782 61.7892L129.757 66.0434C129.917 66.2734 130.33 66.1758 130.33 65.9081C130.33 65.6686 130.675 65.5532 130.865 65.7288L131.984 66.759C132.058 66.8285 132.119 66.9083 132.163 66.9956L133.692 70.0881C133.808 70.322 133.974 70.5351 134.183 70.7164L135.532 71.8884C135.67 72.0086 135.79 72.1438 135.89 72.2903L139.065 76.9643C139.206 77.1699 139.301 77.3962 139.349 77.631L140.965 85.5637C141.017 85.8201 141.011 86.083 140.946 86.3375L139.317 92.7357C139.291 92.8409 139.254 92.9442 139.208 93.0447L132.167 108.358C132.121 108.46 132.083 108.565 132.057 108.672L130.73 113.964C130.497 114.895 129.533 115.56 128.419 115.56H126.263C125.43 115.56 124.659 115.934 124.232 116.544L122.504 119.016C121.83 119.979 120.365 120.289 119.243 119.704L118.367 119.249C117.979 119.047 117.743 118.687 117.743 118.299V117.942C117.743 117.525 117.348 117.188 116.86 117.188H116.513C116.217 117.188 115.977 116.983 115.977 116.73C115.977 116.313 115.377 116.113 115.047 116.419L113.441 117.901C112.85 118.447 111.835 118.433 111.263 117.873L111.08 117.692C110.754 117.371 110.281 117.188 109.785 117.188H107.521C107.129 117.188 106.743 117.105 106.399 116.946L103.77 115.735C103.519 115.619 103.294 115.466 103.107 115.282L102.095 114.286C101.723 113.919 101.517 113.45 101.517 112.964V112.403C101.517 112.125 101.451 111.851 101.321 111.597L100.071 109.148C99.8739 108.761 99.428 108.512 98.9347 108.512H98.2459C97.4285 108.512 97.0029 107.682 97.5562 107.169L97.593 107.134C97.8271 106.917 97.8861 106.602 97.741 106.333L97.502 105.891C97.1741 105.283 96.1072 105.482 96.1072 106.152C96.1072 106.496 95.7792 106.776 95.3758 106.776H95.3488C94.8438 106.776 94.4811 106.363 94.6213 105.949L96.0694 101.683C96.0946 101.608 96.1072 101.53 96.1072 101.453C96.1072 100.593 94.7558 100.311 94.2895 101.073L92.5773 103.874C91.8557 105.054 89.8611 105.008 89.2149 103.797L87.4466 100.48C87.2725 100.153 86.8894 99.9424 86.4687 99.9424C85.8747 99.9424 85.393 99.5311 85.393 99.0249V98.7901C85.393 98.3647 85.1192 97.975 84.6791 97.774L78.6787 95.0412C78.2425 94.843 77.7443 94.766 77.2548 94.8215L64.1175 96.3118C63.8118 96.3465 63.5168 96.432 63.2498 96.5635L56.6826 99.7893C56.4765 99.8907 56.2889 100.018 56.1273 100.167L55.3061 100.924C54.8592 101.336 54.2304 101.57 53.5726 101.57H46.721C46.0448 101.57 45.4006 101.817 44.9527 102.249L40.9528 106.097C40.5049 106.529 39.8607 106.776 39.1845 106.776H37.4104C36.89 106.776 36.3841 106.63 35.972 106.359L32.2033 103.894C31.6364 103.523 31.3046 102.948 31.3046 102.338C31.3046 101.845 31.5223 101.369 31.916 101.006L32.4412 100.523C32.8465 100.15 33.071 99.6597 33.071 99.1517V94.9501C33.071 94.8074 33.0535 94.6665 33.0187 94.5275L31.3433 87.8448C31.3172 87.7406 31.2775 87.6391 31.2253 87.5424L26.5453 78.8688C26.4157 78.6293 26.7911 78.4293 26.9865 78.6331C27.1432 78.7955 27.4527 78.7016 27.4527 78.4913V77.7569C27.4527 77.2413 28.2691 77.0807 28.5342 77.5446L29.4309 79.1186L26.0452 71.2761C25.8711 70.8713 26.2213 70.4421 26.7262 70.4421C27.1277 70.4421 27.4527 70.1642 27.4527 69.8223V66.8641C27.4527 66.2547 28.3097 65.941 28.8234 66.3636C29.1552 66.6369 29.6863 66.619 29.991 66.3251L34.402 62.0775C34.6874 61.8033 35.055 61.6004 35.4651 61.4906L47.0363 58.3981C47.2936 58.3295 47.5345 58.2243 47.7502 58.0863L51.6447 55.5873C52.288 55.175 52.3857 54.3834 51.8585 53.865C51.4048 53.4198 51.4048 52.7578 51.8585 52.3126L54.6047 49.6183M68.958 44.4119V46.0403M68.958 44.4119L67.8949 43.3695C67.4461 42.93 66.796 42.6774 66.1121 42.6774H66.0367C65.6333 42.6774 65.2357 42.7647 64.8836 42.9328L62.179 44.2222C61.9178 44.3471 61.6247 44.4119 61.3258 44.4119C60.5471 44.4119 59.8622 44.8514 59.6455 45.49L58.7391 48.1618C58.446 49.0248 57.5203 49.6183 56.4678 49.6183H56.3711H54.6047M54.6047 49.6183L55.9213 50.8317C56.1795 51.0693 56.1921 51.4327 55.9522 51.6834C55.5005 52.1549 54.6047 51.8816 54.6047 51.2721V49.6183Z" stroke="white" stroke-opacity="0.1" stroke-width="3.4375" stroke-miterlimit="10" stroke-linejoin="round"/>
</svg>
