<svg width="162" height="162" viewBox="0 0 162 162" fill="none" xmlns="http://www.w3.org/2000/svg">
<path d="M66.252 0.451713C60.05 1.4813 51.398 4.59986 43.744 8.56018C37.089 11.9902 32.793 14.953 27.227 19.9739C21.691 24.9638 18.212 29.018 13.372 36.2526C5.89901 47.3239 0.363003 63.5706 0.0910034 75.1412L0 78.4155L1.21002 78.2598C3.78202 77.9471 8.77301 78.1968 10.558 78.727C12.585 79.3512 12.857 79.1634 12.857 77.3859C12.857 75.4218 15.036 65.0056 16.155 61.4198C20.511 47.7912 28.891 35.5048 39.328 27.4272C44.531 23.4051 46.437 22.1567 51.005 19.7872C55.785 17.3237 60.958 15.5772 67.674 14.1422C73.149 12.9889 74.027 12.6144 75.842 10.6812C77.233 9.21527 77.596 8.21774 77.596 6.0028C77.596 3.78901 76.87 2.57275 74.813 1.1698C73.452 0.295965 72.937 0.140206 71.092 0.0783616C69.943 0.0462943 67.764 0.203191 66.252 0.451713Z" fill="#F65C3C"/>
<path d="M87.3405 0.635246C84.1335 2.28786 82.7725 5.93667 84.2245 9.18005C84.8595 10.646 87.2195 12.9846 88.2475 13.2022C88.6415 13.2652 91.0305 13.7016 93.5725 14.1379C101.075 15.479 105.4 16.9449 111.874 20.3132C118.166 23.6184 123.732 27.8593 129.329 33.691C133.957 38.5251 139.555 47.1948 142.913 54.773C145.878 61.4155 148.085 69.9592 148.569 76.5089C148.69 78.1306 148.903 79.19 149.115 79.19C149.296 79.19 150.414 78.8476 151.564 78.4112C153.561 77.6931 153.925 77.6622 157.857 77.85L162.001 78.0367V76.0405C162.001 73.5461 161.033 66.9655 160.035 62.7875C158.371 55.5518 153.864 44.918 149.478 37.7761C141.491 24.7728 130.359 14.3257 118.016 8.24437C110.332 4.40889 102.768 1.78853 96.1135 0.604324C91.5155 -0.206523 89.0045 -0.206522 87.3405 0.635246Z" fill="#F65C3C"/>
<path d="M70.2787 26.8315C69.4927 27.2678 69.1897 28.0168 68.4037 31.2602C67.5257 34.846 66.3767 37.1847 63.4117 41.6134C61.0517 45.1683 58.5717 48.225 54.6087 52.5278C50.4337 57.0813 46.3497 62.8821 44.2627 67.1848C39.1797 77.601 39.6337 89.6079 45.4117 98.5582C47.3177 101.489 51.5227 105.855 53.7917 107.227C56.8777 109.098 64.2587 111.749 64.8037 111.219C64.8937 111.094 64.5308 109.753 64.0168 108.194C63.2908 106.01 62.5947 104.732 61.0517 102.643C59.9627 101.146 58.4507 98.6509 57.6937 97.0293C56.4537 94.41 56.3027 93.8179 56.0607 90.7922C55.6677 86.4894 55.9397 82.6218 56.6957 80.3141C57.0287 79.3166 58.1177 76.978 59.0557 75.0757C60.5077 72.2687 61.3847 71.0215 64.1987 67.872C67.6767 64.0044 69.9157 60.792 71.9727 56.8946C73.8187 53.3386 73.8487 53.3386 74.0297 57.7364C74.2417 62.5076 73.9087 65.1898 72.8807 67.4975C71.2767 71.1463 70.8537 73.3601 71.5187 74.4824C71.8827 75.0757 72.3667 74.763 76.0877 71.3948C77.6607 69.9919 79.9597 68.1205 81.1697 67.2787C82.3797 66.437 83.4988 65.4395 83.6198 65.065C83.9828 64.0044 84.6487 52.5908 84.4067 51.063C84.2247 49.8776 83.4388 46.9457 81.9258 41.9249C80.1108 35.9695 74.8167 27.892 71.9727 26.8006C71.0347 26.4261 70.9447 26.4261 70.2787 26.8315Z" fill="#F65C3C"/>
<path d="M112.418 45.7309C112.085 46.0424 111.268 47.6641 110.603 49.3488C108.243 55.461 104.31 60.8552 99.5313 64.5979C98.0493 65.7833 94.9633 67.8722 92.7243 69.2752C86.7043 72.987 84.1633 74.9202 80.9263 78.2563C76.4193 82.8717 74.0893 86.958 72.4253 93.0703C71.4883 96.5943 71.2463 105.981 72.0023 109.816C72.9703 114.775 74.6643 118.298 76.6613 119.514C77.5683 120.045 77.5683 120.045 77.9923 119.359C78.2343 118.953 78.8082 117.239 79.2622 115.523C79.7462 113.808 80.5633 111.344 81.1383 110.003C81.6823 108.694 82.1363 107.54 82.1363 107.415C82.1363 106.636 85.8272 100.43 87.4302 98.5275C88.4892 97.2482 89.7903 95.6895 90.2743 95.0974C91.6653 93.4128 92.5133 92.4771 97.5653 87.1447C101.86 82.5602 104.462 79.5047 106.761 76.2304C108.183 74.2342 109.453 72.9549 110.028 72.9549C110.331 72.9549 110.996 73.3603 111.541 73.8288L112.478 74.7335L112.085 76.2613C110.905 80.7209 107.971 84.837 99.4103 94.1618C96.9603 96.8119 94.4183 99.7747 93.7533 100.71L92.5733 102.426L93.6323 101.552C96.7183 99.0578 104.673 96.1568 107.91 96.4065C109.211 96.5004 109.846 96.718 110.421 97.2803C111.329 98.1839 111.359 98.2778 110.542 99.9934C110.088 100.96 109.362 101.739 108.122 102.613C105.369 104.546 104.341 104.826 99.2283 104.982C93.9653 105.17 92.1193 104.857 92.1193 103.735C92.1193 102.799 89.1243 107.851 87.7633 111.157C86.5833 113.995 85.0103 119.827 85.2523 120.482C85.4943 121.105 89.0643 121.386 92.4523 121.011C97.6863 120.419 105.097 117.644 109.362 114.651C115.201 110.533 121.645 101.241 123.672 94.0048C125.184 88.4549 125.456 86.5206 125.456 80.5961C125.456 69.4939 123.732 61.4484 119.315 52.1856C116.351 45.8866 114.384 44.0783 112.418 45.7309Z" fill="#F65C3C"/>
<path d="M8.40274 87.9539L6.01272 89.2641L3.86575 88.2665C2.68575 87.7363 1.38473 87.2679 0.991727 87.2369C0.325727 87.143 0.295739 87.2679 0.204739 89.0144C-0.0372606 93.2874 1.05174 98.9003 3.65374 106.915C9.06874 123.599 21.1697 139.161 36.6887 149.327C42.6177 153.194 47.4577 155.72 52.8427 157.778C56.7757 159.306 65.9727 161.552 68.9667 161.739C71.5987 161.894 71.7807 161.863 73.6257 160.928C74.6847 160.367 75.8648 159.556 76.2578 159.119C77.2258 158.028 77.7407 155.408 77.2867 153.661C76.4997 150.667 74.8057 149.451 69.8747 148.423C65.0037 147.393 57.3807 145.116 54.2647 143.776C51.1487 142.435 45.4317 139.129 41.2867 136.26C36.3557 132.83 30.6377 127.279 26.4937 121.946C23.4987 118.048 22.5307 116.52 20.0197 111.593C16.9337 105.605 15.6637 101.395 13.3947 89.8562L12.7597 86.6758H11.7917C11.2167 86.6758 9.76474 87.237 8.40274 87.9539Z" fill="#F65C3C"/>
<path d="M149.205 87.0519C148.842 87.3325 148.6 88.2682 148.358 90.2335C147.904 94.006 145.635 102.614 144.122 106.263C141.642 112.281 138.223 118.299 134.412 123.32C132.203 126.252 127.06 131.335 123.582 134.048C118.469 138.071 113.175 141.159 107.367 143.559C104.553 144.714 95.2058 147.333 90.0018 148.455C86.5228 149.204 85.1918 150.046 84.2538 152.042C82.7418 155.223 83.2558 158.404 85.5548 160.431C87.4308 162.084 88.5808 162.301 92.5428 161.678C108.365 159.246 122.069 153.071 134.775 142.687C141.158 137.479 149.87 126.096 154.287 117.208C157.675 110.41 160.065 103.331 161.094 97.0318C161.699 93.5078 161.911 87.8009 161.457 87.0828C161.306 86.8023 160.519 86.958 158.553 87.6761L155.89 88.6118L153.47 87.644C150.869 86.5847 149.991 86.4598 149.205 87.0519Z" fill="#F65C3C"/>
<path d="M76.3926 127.096C75.8776 129.59 76.2106 133.957 76.9666 135.016C77.2696 135.454 77.7536 135.859 78.0256 135.89C78.5096 136.015 78.5096 135.952 77.9956 135.141C77.5416 134.424 77.4506 133.551 77.3906 130.089C77.3296 125.38 76.9666 124.289 76.3926 127.096Z" fill="#F65C3C"/>
</svg>
