<svg width="162" height="162" viewBox="0 0 162 162" fill="none" xmlns="http://www.w3.org/2000/svg">
<path d="M66.252 0.451713C60.05 1.4813 51.398 4.59986 43.744 8.56018C37.089 11.9902 32.793 14.953 27.227 19.9739C21.691 24.9638 18.212 29.018 13.372 36.2526C5.89901 47.3239 0.363003 63.5706 0.0910034 75.1412L0 78.4155L1.21002 78.2598C3.78202 77.9471 8.77301 78.1968 10.558 78.727C12.585 79.3512 12.857 79.1634 12.857 77.3859C12.857 75.4218 15.036 65.0056 16.155 61.4198C20.511 47.7912 28.891 35.5048 39.328 27.4272C44.531 23.4051 46.437 22.1567 51.005 19.7872C55.785 17.3237 60.958 15.5772 67.674 14.1422C73.149 12.9889 74.027 12.6144 75.842 10.6812C77.233 9.21527 77.596 8.21774 77.596 6.0028C77.596 3.78901 76.87 2.57275 74.813 1.1698C73.452 0.295965 72.937 0.140206 71.092 0.0783616C69.943 0.0462943 67.764 0.203191 66.252 0.451713Z" fill="#F65C3C"/>
<path d="M87.3405 0.635246C84.1335 2.28786 82.7725 5.93667 84.2245 9.18005C84.8595 10.646 87.2195 12.9846 88.2475 13.2022C88.6415 13.2652 91.0305 13.7016 93.5725 14.1379C101.075 15.479 105.4 16.9449 111.874 20.3132C118.166 23.6184 123.732 27.8593 129.329 33.691C133.957 38.5251 139.555 47.1948 142.913 54.773C145.878 61.4155 148.085 69.9592 148.569 76.5089C148.69 78.1306 148.903 79.19 149.115 79.19C149.296 79.19 150.414 78.8476 151.564 78.4112C153.561 77.6931 153.925 77.6622 157.857 77.85L162.001 78.0367V76.0405C162.001 73.5461 161.033 66.9655 160.035 62.7875C158.371 55.5518 153.864 44.918 149.478 37.7761C141.491 24.7728 130.359 14.3257 118.016 8.24437C110.332 4.40889 102.768 1.78853 96.1135 0.604324C91.5155 -0.206523 89.0045 -0.206522 87.3405 0.635246Z" fill="#F65C3C"/>
<path d="M8.40274 87.9539L6.01272 89.2641L3.86575 88.2665C2.68575 87.7363 1.38473 87.2679 0.991727 87.2369C0.325727 87.143 0.295739 87.2679 0.204739 89.0144C-0.0372606 93.2874 1.05174 98.9003 3.65374 106.915C9.06874 123.599 21.1697 139.161 36.6887 149.327C42.6177 153.194 47.4577 155.72 52.8427 157.778C56.7757 159.306 65.9727 161.552 68.9667 161.739C71.5987 161.894 71.7807 161.863 73.6257 160.928C74.6847 160.367 75.8648 159.556 76.2578 159.119C77.2258 158.028 77.7407 155.408 77.2867 153.661C76.4997 150.667 74.8057 149.451 69.8747 148.423C65.0037 147.393 57.3807 145.116 54.2647 143.776C51.1487 142.435 45.4317 139.129 41.2867 136.26C36.3557 132.83 30.6377 127.279 26.4937 121.946C23.4987 118.048 22.5307 116.52 20.0197 111.593C16.9337 105.605 15.6637 101.395 13.3947 89.8562L12.7597 86.6758H11.7917C11.2167 86.6758 9.76474 87.237 8.40274 87.9539Z" fill="#F65C3C"/>
<path d="M149.205 87.0519C148.842 87.3325 148.6 88.2682 148.358 90.2335C147.904 94.006 145.635 102.614 144.122 106.263C141.642 112.281 138.223 118.299 134.412 123.32C132.203 126.252 127.06 131.335 123.582 134.048C118.469 138.071 113.175 141.159 107.367 143.559C104.553 144.714 95.2058 147.333 90.0018 148.455C86.5228 149.204 85.1918 150.046 84.2538 152.042C82.7418 155.223 83.2558 158.404 85.5548 160.431C87.4308 162.084 88.5808 162.301 92.5428 161.678C108.365 159.246 122.069 153.071 134.775 142.687C141.158 137.479 149.87 126.096 154.287 117.208C157.675 110.41 160.065 103.331 161.094 97.0318C161.699 93.5078 161.911 87.8009 161.457 87.0828C161.306 86.8023 160.519 86.958 158.553 87.6761L155.89 88.6118L153.47 87.644C150.869 86.5847 149.991 86.4598 149.205 87.0519Z" fill="#F65C3C"/>
<path d="M55.2757 28.3252C52.6072 29.35 50.7091 32.107 49.6637 36.4987C48.7834 40.1829 48.7834 46.868 49.6362 50.9669C51.3143 58.9208 54.7805 64.7276 61.9605 71.608C63.6936 73.267 68.3702 77 68.7278 77C68.8379 77 69.2505 76.756 69.6356 76.4388C70.0483 76.1461 71.3962 75.3409 72.6892 74.6334L75 73.389L71.7539 71.0468C68.2877 68.607 65.2616 65.728 61.933 61.8486C59.127 58.5548 57.724 55.749 56.5686 51.1621C55.7983 48.0635 55.6333 45.4041 55.9909 41.6224C56.4311 37.3038 56.8987 35.3764 58.2467 32.4486C59.4846 29.7159 59.4571 29.3012 57.8891 28.4472C56.8162 27.8861 56.4586 27.8617 55.2757 28.3252Z" fill="#F65C3C"/>
<path d="M101.207 28.3746C100.868 28.5709 100.388 29.0619 100.163 29.4546C99.7677 30.1174 99.8241 30.2646 101.179 32.6457C101.94 34.0448 102.815 35.9349 103.126 36.8922C103.775 38.9296 104.367 44.698 104.113 46.4899C103.351 51.9392 101.263 56.7748 97.7078 61.4141C96.5226 62.936 94.5474 64.8997 91.7256 67.3789C88.2831 70.349 86.7311 71.5027 83.6554 73.2946C64.3263 84.6351 57.0743 90.649 51.6565 99.8784C49.2298 104.051 47.9036 107.93 47.2546 113.035C46.5491 118.657 47.2828 123.296 49.7942 128.941C51.459 132.623 53.011 134.759 54.5912 135.422C56.4818 136.281 57.7233 136.183 58.7956 135.127C59.2753 134.636 59.6704 134.096 59.6704 133.9C59.6704 133.703 59.0213 132.452 58.2595 131.151C55.1273 125.873 54.1961 122.608 54.2243 116.963C54.2526 113.158 54.5912 111.366 56.1996 106.85C57.6951 102.579 59.4164 99.8048 62.9436 95.9756C66.7812 91.8272 74.9079 85.8379 83.4579 80.904C88.9321 77.7621 92.5439 75.3811 95.2246 73.221C98.9211 70.2509 103.605 64.8997 106.568 60.2604C109.87 55.1057 111.224 49.5091 110.97 42.1451C110.688 34.3394 108.854 30.2156 104.96 28.5955C103.21 27.8836 102.11 27.81 101.207 28.3746Z" fill="#F65C3C"/>
<path d="M66.9914 32.1379L63.5757 32.2508L62.8758 33.2957C61.6159 35.2724 61 36.7126 61 37.8704V39H80.486H100L99.832 37.588C99.72 36.7691 99.2161 35.3289 98.6561 34.2276L97.6482 32.3073L90.061 32.1379C82.8378 31.9402 74.3826 31.9684 66.9914 32.1379Z" fill="#F65C3C"/>
<path d="M63.8516 45.112L59.6609 45.2568L59.2418 46.2703C58.9066 47.1631 58.9066 47.4286 59.3257 48.5627C60.1638 50.9035 58.0126 50.6622 79.5527 50.8552L98.6343 51L99.3607 49.5763C99.9474 48.4421 100.059 47.8871 99.9753 46.777C99.9194 46.0048 99.7518 45.305 99.6401 45.2085C99.3886 44.9913 70.1376 44.9189 63.8516 45.112Z" fill="#F65C3C"/>
<path d="M64 58.7819C64 59.358 64.3056 59.9136 65.0556 60.7984C66.9167 62.8971 65.5556 62.6914 79.5556 62.856L91.9167 63L92.9167 62.0947C94.25 60.9012 95.5833 59.2757 95.8056 58.5556L96 58H80H64V58.7819Z" fill="#F65C3C"/>
<path d="M77.2821 68.1557C73.96 68.2756 73.6503 68.4555 74.2415 69.9847C74.4105 70.4345 75.0017 71.3341 75.5085 71.9937C76.4094 73.1032 76.4938 73.1631 77.2258 72.8033C77.986 72.4435 83.4478 68.7254 83.9827 68.2156C84.1235 68.0657 83.3915 67.9758 82.2935 68.0057C81.1955 68.0357 78.9432 68.1257 77.2821 68.1557Z" fill="#F65C3C"/>
<path d="M35.9785 75.2781C34.8511 75.5833 32.9635 77.1095 32.4129 78.1191C31.8624 79.1522 31.8624 81.735 32.4129 82.909C32.9111 84.0125 34.2219 85.2569 35.3755 85.6796C36.5553 86.1257 38.9148 86.1022 39.9897 85.6326C41.3792 85.0456 43.4504 82.9325 43.7912 81.7585C45.0234 77.6495 40.5927 73.9397 35.9785 75.2781Z" fill="#F65C3C"/>
<path d="M119.111 75.5533C116.361 76.6334 115 78.3946 115 80.8601C115 85.0634 120.16 87.3176 124.894 85.1808C126.907 84.2885 127.842 83.0674 127.984 81.2358C128.126 79.3808 127.332 77.7136 125.716 76.4925C123.561 74.8723 121.549 74.5905 119.111 75.5533Z" fill="#F65C3C"/>
<path d="M90.3239 82.7332C89.9 83.1242 88.7413 83.8085 87.7522 84.2483L86 85.0304L87.1587 86.2523C87.8087 86.9366 90.1261 89.0139 92.3022 90.9201C94.4782 92.8018 97.1065 95.3923 98.1804 96.6631C103.833 103.506 106.574 111.644 105.754 119.147C105.246 123.888 104.398 126.527 102.052 130.559C99.8761 134.274 99.8195 134.616 101.12 135.52C102.052 136.156 103.889 136.156 105.076 135.545C106.404 134.836 108.156 132.783 109.683 130.144C113.837 122.959 114.119 111.864 110.361 102.846C108.185 97.5673 104.935 93.1684 99.8478 88.574C97.5304 86.4723 91.6522 82 91.2282 82C91.1717 82 90.7761 82.3177 90.3239 82.7332Z" fill="#F65C3C"/>
<path d="M81.4985 86.4958C80.3031 86.9676 74.2389 91.0564 74.0057 91.5282C73.8599 91.8427 76.513 92 82.3148 92H88L87.7959 91.3709C87.5335 90.5172 83.7434 86.0465 83.2478 86.0015C83.0145 85.9791 82.2273 86.2037 81.4985 86.4958Z" fill="#F65C3C"/>
<path d="M68.9871 98.037L66.2786 98.1357L64.8545 99.8376C63.3746 101.589 62.7882 102.847 63.0674 103.587C63.2071 104.006 64.1285 104.031 80.4354 103.982L97.6359 103.908L97.8872 102.97C98.1106 102.206 98.0268 101.836 97.4125 100.75C97.0216 100.035 96.3514 99.147 95.9326 98.8017L95.1508 98.1357L83.4232 98.037C76.973 97.9877 70.467 97.9877 68.9871 98.037Z" fill="#F65C3C"/>
<path d="M61.377 112.147L59.5298 112.271L58.7624 113.306C57.853 114.506 57.7678 115.189 58.4498 116.183L58.9045 116.907L76.4107 116.969C86.0448 117.01 95.5367 117.01 97.5261 116.969L101.107 116.907L101.562 116.203C102.187 115.251 102.13 113.658 101.476 112.871C100.993 112.292 100.766 112.23 99.0039 112.105C96.6451 111.94 63.9916 111.981 61.377 112.147Z" fill="#F65C3C"/>
<path d="M60.9299 124.11C60.0282 124.21 60 124.261 60 125.343C60 126.451 60.62 127.86 61.719 129.27L62.2544 129.924L79.9512 129.95L97.6198 130L98.5215 128.666C100.24 126.123 100.466 124.487 99.1696 124.16C98.437 123.984 62.5362 123.933 60.9299 124.11Z" fill="#F65C3C"/>
</svg>
