<svg width="162" height="162" viewBox="0 0 162 162" fill="none" xmlns="http://www.w3.org/2000/svg">
<path d="M73.153 0.156932C69.1323 0.585296 62.272 1.89895 58.8137 2.89846C52.0096 4.89749 42.8156 9.12402 37.1362 12.8651C29.2636 18.0625 21.1662 26.0301 15.4305 34.2261C6.88319 46.4774 2.46895 57.929 0.641401 72.5504C-0.989336 85.6298 0.528936 99.4803 4.74636 110.218C10.4258 124.725 20.885 138.29 33.0874 147C43.8559 154.682 56.3114 159.451 70.4819 161.365C77.7921 162.364 88.3076 162.164 95.4772 160.908C99.7227 160.165 106.892 158.337 110.182 157.109C112.994 156.081 120.641 152.512 122.806 151.198C125.59 149.542 131.016 145.715 133.659 143.545C138.495 139.604 144.905 132.464 148.56 126.953C151.625 122.326 152.384 120.956 154.83 115.987C160.172 104.963 162 96.4817 162 82.5456C162 74.3496 161.719 71.2082 160.397 65.1255C158.682 57.0722 156.011 49.6758 152.216 42.565C150.332 39.0524 146.058 32.6269 143.218 29.0001C140.519 25.6018 134.784 19.8046 131.213 16.9202C120.754 8.43864 106.583 2.52721 91.8502 0.556738C88.0545 0.0712593 76.3863 -0.185759 73.153 0.156932ZM87.211 7.86748C96.9111 8.78133 106.864 11.4943 114.174 15.2068C117.801 17.063 122.131 19.8902 125.561 22.6318C145.496 38.6811 156.77 64.4401 154.437 88.6855C152.75 106.306 146.114 120.527 133.828 132.864C123.003 143.716 109.873 150.57 94.0995 153.54C82.7687 155.682 68.0639 154.482 56.5082 150.484C45.9928 146.857 36.9394 141.289 29.348 133.835C19.9291 124.554 13.5186 114.13 10.3415 102.85C7.47363 92.6264 6.85507 79.2329 8.79509 68.838C10.4258 60.2136 13.7154 51.275 17.6798 44.7068C27.1268 29.0858 39.9197 17.9483 55.1586 12.1511C65.0836 8.38152 76.4425 6.86797 87.211 7.86748Z" fill="black"/>
<path d="M56.5078 18.2893C53.7805 19.4887 51.8405 22.7157 50.7721 27.8561C49.8724 32.1683 49.8724 39.9931 50.744 44.7908C52.4591 54.1005 56.0017 60.8972 63.34 68.9505C65.1113 70.8924 69.8911 75.2617 70.2566 75.2617C70.3691 75.2617 70.7908 74.9761 71.1844 74.6049C71.6062 74.2622 72.9839 73.3198 74.3053 72.4916L76.6671 71.0352L73.3494 68.2937C69.8067 65.4379 66.714 62.0681 63.3119 57.5275C60.4441 53.6722 59.0101 50.3881 57.8292 45.0192C57.042 41.3924 56.8733 38.2796 57.2388 33.8532C57.6887 28.7985 58.1666 26.5425 59.5443 23.1155C60.8096 19.9171 60.7814 19.4316 59.1788 18.4321C58.0823 17.7753 57.7168 17.7467 56.5078 18.2893Z" fill="black"/>
<path d="M102.59 18.604C102.252 18.8324 101.774 19.4036 101.55 19.8605C101.156 20.6316 101.212 20.8029 102.562 23.573C103.321 25.2008 104.192 27.3997 104.502 28.5135C105.148 30.8837 105.739 37.5948 105.486 39.6795C104.727 46.0193 102.646 51.6451 99.1035 57.0425C97.9226 58.8131 95.9544 61.0977 93.1428 63.982C89.7127 67.4375 88.1663 68.7797 85.1016 70.8644C65.8421 84.058 58.6162 91.0546 53.2179 101.792C50.7999 106.647 49.4785 111.159 48.8318 117.099C48.1289 123.639 48.8599 129.036 51.3622 135.604C53.0211 139.888 54.5675 142.373 56.142 143.144C58.0258 144.143 59.2629 144.029 60.3313 142.801C60.8093 142.23 61.2029 141.602 61.2029 141.373C61.2029 141.145 60.5562 139.688 59.7971 138.175C56.6762 132.035 55.7484 128.237 55.7765 121.668C55.8046 117.242 56.142 115.157 57.7446 109.903C59.2348 104.934 60.9498 101.707 64.4644 97.2516C68.2882 92.4254 76.3856 85.4573 84.9048 79.7172C90.3593 76.0619 93.9582 73.2918 96.6292 70.7787C100.312 67.3232 104.98 61.0977 107.932 55.7003C111.222 49.7032 112.571 43.1921 112.318 34.6248C112.037 25.5435 110.209 20.7458 106.329 18.861C104.586 18.0328 103.49 17.9472 102.59 18.604Z" fill="black"/>
<path d="M67.7825 23.2011L64.3523 23.3154L63.6494 24.372C62.3842 26.371 61.7656 27.8275 61.7656 28.9983V30.1406H81.3345H100.931L100.763 28.7127C100.65 27.8846 100.144 26.4281 99.5818 25.3144L98.5697 23.3725L90.9502 23.2011C83.6962 23.0012 75.2051 23.0298 67.7825 23.2011Z" fill="black"/>
<path d="M41.8896 29.6298C40.9617 30.458 39.1623 32.0858 37.869 33.2567C29.7434 40.6531 21.8709 53.7896 18.6094 65.384C15.4323 76.6642 15.4323 89.2867 18.6094 100.167C20.4088 106.307 22.0677 109.934 25.7228 115.674C28.4782 120.015 31.5991 123.927 34.973 127.268C38.6 130.895 44.0545 135.236 44.0545 134.465C44.0545 134.351 43.8577 133.065 43.6328 131.666C43.4079 130.238 43.211 127.982 43.211 126.611C43.211 125.269 43.0986 124.098 42.9861 124.041C42.3394 123.784 39.5559 121.128 37.6722 118.958C29.9402 110.105 25.1042 99.3389 24.1202 88.8583C22.8831 75.836 25.6103 63.8133 32.4707 52.0761C34.3263 48.8491 38.6 43.4232 41.1023 41.0529L43.2954 38.9682L43.2392 35.4556C43.211 33.5137 43.3235 31.1434 43.4922 30.1439C43.6609 29.1729 43.7452 28.3162 43.6609 28.2305C43.6047 28.1448 42.7893 28.7731 41.8896 29.6298Z" fill="black"/>
<path d="M118.084 30.227C118.196 31.3693 118.337 33.7681 118.449 35.5387L118.646 38.7943L121.373 41.5644C124.916 45.1912 127.39 48.4467 130.005 52.9303C132.76 57.5852 133.66 59.5842 135.403 64.8388C137.568 71.4642 138.243 75.5765 138.243 82.4017C138.243 89.1699 137.596 93.4535 135.684 99.3935C133.772 105.362 129.639 112.987 126.012 117.242C123.875 119.755 121.233 122.525 119.995 123.553C118.843 124.467 118.843 124.496 118.843 126.466C118.843 127.551 118.646 129.807 118.393 131.435C118.168 133.091 118.027 134.519 118.112 134.605C118.337 134.805 120.67 133.12 123.398 130.778C129.442 125.552 134.475 119.07 139.536 109.96C141.842 105.79 143.922 99.6505 145.075 93.5392C145.919 89.0271 145.975 76.4332 145.188 71.9782C144.035 65.5527 142.123 59.6128 139.311 53.5585C136.303 47.1045 131.439 40.3078 125.9 34.7391C122.863 31.6834 118.674 28.1423 118.112 28.1423C117.999 28.1423 117.999 29.0847 118.084 30.227Z" fill="black"/>
<path d="M65.281 38.1101L61.0636 38.2814L60.6418 39.4808C60.3044 40.5375 60.3044 40.8516 60.7262 42.1938C61.5697 44.9639 59.4047 44.6783 81.0823 44.9068L100.286 45.0781L101.017 43.3932C101.607 42.051 101.72 41.3942 101.635 40.0805C101.579 39.1667 101.41 38.3385 101.298 38.2243C101.045 37.9673 71.6071 37.8816 65.281 38.1101Z" fill="black"/>
<path d="M64.8594 53.216C64.8594 54.0156 65.1687 54.7867 65.9278 56.0146C67.8116 58.9275 66.4339 58.6419 80.6044 58.8704L93.1161 59.0703L94.1283 57.8138C95.4779 56.1574 96.8274 53.9014 97.0524 52.9019L97.2492 52.1308H81.0543H64.8594V53.216Z" fill="black"/>
<path d="M78.27 65.7534C74.9523 65.8677 74.643 66.039 75.2334 67.4954C75.4021 67.9238 75.9925 68.7805 76.4986 69.4088C77.3984 70.4654 77.4827 70.5226 78.2137 70.1799C78.9729 69.8372 84.4274 66.296 84.9616 65.8106C85.1022 65.6678 84.3712 65.5821 83.2746 65.6106C82.1781 65.6392 79.9288 65.7249 78.27 65.7534Z" fill="black"/>
<path d="M37.3604 72.7796C36.1514 73.1508 34.127 75.0071 33.5366 76.2351C32.9461 77.4916 32.9461 80.6329 33.5366 82.0608C34.0708 83.403 35.4766 84.9166 36.7137 85.4306C37.9789 85.9732 40.5094 85.9446 41.6621 85.3735C43.1523 84.6595 45.3735 82.0894 45.739 80.6615C47.0604 75.6639 42.3088 71.1518 37.3604 72.7796Z" fill="black"/>
<path d="M120.108 73.3771C117.381 74.6908 116.031 76.8326 116.031 79.8311C116.031 84.9429 121.148 87.6845 125.844 85.0857C127.84 84.0005 128.768 82.5156 128.908 80.2881C129.049 78.032 128.262 76.0044 126.659 74.5194C124.522 72.549 122.526 72.2063 120.108 73.3771Z" fill="black"/>
<path d="M90.8643 81.5481C90.4425 82.005 89.2898 82.8046 88.3057 83.3186L86.5625 84.2325L87.7153 85.6604C88.3619 86.46 90.6675 88.8874 92.8324 91.1149C94.9973 93.3138 97.6121 96.3409 98.6806 97.8259C104.304 105.822 107.031 115.332 106.216 124.099C105.71 129.639 104.866 132.723 102.532 137.435C100.368 141.776 100.311 142.176 101.605 143.232C102.532 143.975 104.36 143.975 105.541 143.261C106.862 142.433 108.606 140.034 110.124 136.95C114.257 128.554 114.538 115.589 110.799 105.051C108.634 98.8825 105.4 93.7422 100.339 88.3733C98.0339 85.9174 92.1857 80.6913 91.764 80.6913C91.7078 80.6913 91.3141 81.0626 90.8643 81.5481Z" fill="black"/>
<path d="M82.8251 85.9721C81.6723 86.5718 75.8242 91.7693 75.5992 92.369C75.4587 92.7688 78.0172 92.9688 83.6123 92.9688H89.095L88.8982 92.1691C88.6451 91.0839 84.99 85.401 84.5121 85.3439C84.2871 85.3153 83.528 85.6009 82.8251 85.9721Z" fill="black"/>
<path d="M69.8645 100.307L67.1372 100.421L65.7033 102.392C64.2131 104.42 63.6227 105.876 63.9038 106.733C64.0444 107.218 64.9723 107.247 81.3921 107.19L98.7116 107.104L98.9647 106.019C99.1896 105.133 99.1053 104.705 98.4867 103.449C98.0931 102.62 97.4183 101.592 96.9966 101.193L96.2093 100.421L84.4005 100.307C77.9057 100.25 71.3546 100.25 69.8645 100.307Z" fill="black"/>
<path d="M62.6105 115.502L60.783 115.674L60.0238 117.102C59.1241 118.758 59.0398 119.7 59.7146 121.071L60.1644 122.071L77.484 122.156C87.0154 122.213 96.4061 122.213 98.3743 122.156L101.917 122.071L102.367 121.1C102.985 119.786 102.929 117.587 102.282 116.502C101.804 115.702 101.58 115.617 99.8363 115.445C97.5027 115.217 65.1972 115.274 62.6105 115.502Z" fill="black"/>
<path d="M61.8497 130.294C60.95 130.408 60.9219 130.465 60.9219 131.693C60.9219 132.95 61.5404 134.549 62.637 136.148L63.1712 136.891L80.8281 136.919L98.4569 136.977L99.3567 135.463C101.072 132.579 101.297 130.722 100.003 130.351C99.2723 130.151 63.4523 130.094 61.8497 130.294Z" fill="black"/>
</svg>
