<svg width="162" height="162" viewBox="0 0 162 162" fill="none" xmlns="http://www.w3.org/2000/svg">
<path d="M66.252 0.451713C60.05 1.4813 51.398 4.59986 43.744 8.56018C37.089 11.9902 32.793 14.953 27.227 19.9739C21.691 24.9638 18.212 29.018 13.372 36.2526C5.89901 47.3239 0.363003 63.5706 0.0910034 75.1412L0 78.4155L1.21002 78.2598C3.78202 77.9471 8.77301 78.1968 10.558 78.727C12.585 79.3512 12.857 79.1634 12.857 77.3859C12.857 75.4218 15.036 65.0056 16.155 61.4198C20.511 47.7912 28.891 35.5048 39.328 27.4272C44.531 23.4051 46.437 22.1567 51.005 19.7872C55.785 17.3237 60.958 15.5772 67.674 14.1422C73.149 12.9889 74.027 12.6144 75.842 10.6812C77.233 9.21527 77.596 8.21774 77.596 6.0028C77.596 3.78901 76.87 2.57275 74.813 1.1698C73.452 0.295965 72.937 0.140206 71.092 0.0783616C69.943 0.0462943 67.764 0.203191 66.252 0.451713Z" fill="#F65C3C"/>
<path d="M87.3405 0.635246C84.1335 2.28786 82.7725 5.93667 84.2245 9.18005C84.8595 10.646 87.2195 12.9846 88.2475 13.2022C88.6415 13.2652 91.0305 13.7016 93.5725 14.1379C101.075 15.479 105.4 16.9449 111.874 20.3132C118.166 23.6184 123.732 27.8593 129.329 33.691C133.957 38.5251 139.555 47.1948 142.913 54.773C145.878 61.4155 148.085 69.9592 148.569 76.5089C148.69 78.1306 148.903 79.19 149.115 79.19C149.296 79.19 150.414 78.8476 151.564 78.4112C153.561 77.6931 153.925 77.6622 157.857 77.85L162.001 78.0367V76.0405C162.001 73.5461 161.033 66.9655 160.035 62.7875C158.371 55.5518 153.864 44.918 149.478 37.7761C141.491 24.7728 130.359 14.3257 118.016 8.24437C110.332 4.40889 102.768 1.78853 96.1135 0.604324C91.5155 -0.206523 89.0045 -0.206522 87.3405 0.635246Z" fill="#F65C3C"/>
<path d="M8.40274 87.9539L6.01272 89.2641L3.86575 88.2665C2.68575 87.7363 1.38473 87.2679 0.991727 87.2369C0.325727 87.143 0.295739 87.2679 0.204739 89.0144C-0.0372606 93.2874 1.05174 98.9003 3.65374 106.915C9.06874 123.599 21.1697 139.161 36.6887 149.327C42.6177 153.194 47.4577 155.72 52.8427 157.778C56.7757 159.306 65.9727 161.552 68.9667 161.739C71.5987 161.894 71.7807 161.863 73.6257 160.928C74.6847 160.367 75.8648 159.556 76.2578 159.119C77.2258 158.028 77.7407 155.408 77.2867 153.661C76.4997 150.667 74.8057 149.451 69.8747 148.423C65.0037 147.393 57.3807 145.116 54.2647 143.776C51.1487 142.435 45.4317 139.129 41.2867 136.26C36.3557 132.83 30.6377 127.279 26.4937 121.946C23.4987 118.048 22.5307 116.52 20.0197 111.593C16.9337 105.605 15.6637 101.395 13.3947 89.8562L12.7597 86.6758H11.7917C11.2167 86.6758 9.76474 87.237 8.40274 87.9539Z" fill="#F65C3C"/>
<path d="M149.205 87.0519C148.842 87.3325 148.6 88.2682 148.358 90.2335C147.904 94.006 145.635 102.614 144.122 106.263C141.642 112.281 138.223 118.299 134.412 123.32C132.203 126.252 127.06 131.335 123.582 134.048C118.469 138.071 113.175 141.159 107.367 143.559C104.553 144.714 95.2058 147.333 90.0018 148.455C86.5228 149.204 85.1918 150.046 84.2538 152.042C82.7418 155.223 83.2558 158.404 85.5548 160.431C87.4308 162.084 88.5808 162.301 92.5428 161.678C108.365 159.246 122.069 153.071 134.775 142.687C141.158 137.479 149.87 126.096 154.287 117.208C157.675 110.41 160.065 103.331 161.094 97.0318C161.699 93.5078 161.911 87.8009 161.457 87.0828C161.306 86.8023 160.519 86.958 158.553 87.6761L155.89 88.6118L153.47 87.644C150.869 86.5847 149.991 86.4598 149.205 87.0519Z" fill="#F65C3C"/>
<path d="M132.15 98.4375V98.9375H132.65H135.325C136.523 98.9375 137.5 99.9123 137.5 101.094V106.406C137.5 107.588 136.523 108.562 135.325 108.562H127.3H126.8V109.062C126.8 117.582 119.838 124.5 111.25 124.5C102.662 124.5 95.7 117.582 95.7 109.062V108.562H95.2H73.8H73.3V109.062C73.3 117.582 66.3381 124.5 57.75 124.5C49.1619 124.5 42.2 117.582 42.2 109.062V88.3125H67.1125C68.1209 88.3125 68.95 87.4943 68.95 86.4844V83.8281C68.95 82.8182 68.1209 82 67.1125 82H32.3375C31.8747 82 31.5 81.6229 31.5 81.1719V78.5156C31.5 78.0646 31.8747 77.6875 32.3375 77.6875H72.4625C73.4709 77.6875 74.3 76.8693 74.3 75.8594V73.2031C74.3 72.1932 73.4709 71.375 72.4625 71.375H37.6875C37.2247 71.375 36.85 70.9979 36.85 70.5469V67.8906C36.85 67.4396 37.2247 67.0625 37.6875 67.0625H77.8125C78.8209 67.0625 79.65 66.2443 79.65 65.2344V62.5781C79.65 61.5682 78.8209 60.75 77.8125 60.75H32.3375C31.8747 60.75 31.5 60.3729 31.5 59.9219V57.2656C31.5 56.8146 31.8747 56.4375 32.3375 56.4375H41.7H42.2V55.9375V47.9688C42.2 43.8488 45.5674 40.5 49.725 40.5H92.525C96.6826 40.5 100.05 43.8488 100.05 47.9688V55.9375V56.4375H100.55H107.923C109.913 56.4375 111.827 57.2314 113.238 58.6331L129.94 75.2181C131.352 76.6197 132.15 78.518 132.15 80.4912V98.4375ZM124.625 83H125.125V82.5V80.4912V80.2831L124.977 80.1364L108.275 63.5515L108.129 63.4062H107.923H100.55H100.05V63.9062V82.5V83H100.55H124.625ZM49.225 109.062C49.225 113.741 53.0467 117.531 57.75 117.531C62.4533 117.531 66.275 113.741 66.275 109.062C66.275 104.384 62.4533 100.594 57.75 100.594C53.0467 100.594 49.225 104.384 49.225 109.062ZM102.725 109.062C102.725 113.741 106.547 117.531 111.25 117.531C115.953 117.531 119.775 113.741 119.775 109.062C119.775 104.384 115.953 100.594 111.25 100.594C106.547 100.594 102.725 104.384 102.725 109.062Z" fill="#F65C3C" stroke="#F65C3C"/>
</svg>
